<svg xmlns="http://www.w3.org/2000/svg" xmlns:xlink="http://www.w3.org/1999/xlink" viewBox="0 0 1635.08 689.45" width="1635.08" height="689.45"><defs><style>.cls-1,.cls-15,.cls-16,.cls-18,.cls-20,.cls-22,.cls-24,.cls-25,.cls-29,.cls-36,.cls-4,.cls-41,.cls-44,.cls-52,.cls-7{fill:none;}.cls-2{fill:#f5f6f7;}.cls-3{fill:#dae3f7;}.cls-33,.cls-4,.cls-41{stroke:#829ed9;}.cls-16,.cls-18,.cls-20,.cls-22,.cls-23,.cls-24,.cls-25,.cls-29,.cls-33,.cls-36,.cls-37,.cls-4,.cls-41,.cls-44,.cls-45,.cls-46,.cls-48,.cls-49,.cls-52,.cls-7{stroke-linecap:round;}.cls-16,.cls-18,.cls-20,.cls-23,.cls-24,.cls-25,.cls-29,.cls-33,.cls-36,.cls-37,.cls-4,.cls-41,.cls-45,.cls-46,.cls-48,.cls-49,.cls-52,.cls-7{stroke-linejoin:round;}.cls-15,.cls-16,.cls-18,.cls-20,.cls-22,.cls-23,.cls-24,.cls-25,.cls-29,.cls-33,.cls-36,.cls-37,.cls-4,.cls-44,.cls-45,.cls-46,.cls-48,.cls-49,.cls-7{stroke-width:1.5px;}.cls-33,.cls-5{fill:#c2d1f2;}.cls-6{fill:#829ed9;}.cls-52,.cls-7{stroke:#c2d1f2;}.cls-23,.cls-8{fill:#ffc837;}.cls-48,.cls-9{fill:#fff;}.cls-10,.cls-19,.cls-32{fill:#0039b2;}.cls-11{fill:#ff784b;}.cls-12,.cls-49{fill:#1258ff;}.cls-13{fill:#d0deff;}.cls-14{fill:#719bff;}.cls-15{stroke:#d0deff;}.cls-15,.cls-22,.cls-44{stroke-miterlimit:10;}.cls-16{stroke:#0039b2;}.cls-17{clip-path:url(#clip-path);}.cls-18,.cls-22,.cls-37,.cls-48{stroke:#000;}.cls-19{opacity:0.4;}.cls-19,.cls-32{isolation:isolate;}.cls-20{stroke:#719bff;}.cls-21{fill:#c16c4f;}.cls-23,.cls-25{stroke:#ffc837;}.cls-24{stroke:#fff;}.cls-26{clip-path:url(#clip-path-2);}.cls-27{fill:#ffc6b2;}.cls-28{opacity:0.5;}.cls-29{stroke:#ffc6b2;}.cls-30{fill:#d250dc;}.cls-31{fill:#d1917b;}.cls-32{opacity:0.2;}.cls-34{clip-path:url(#clip-path-3);}.cls-35{fill:#ffae93;}.cls-36{stroke:#ff784b;}.cls-38{clip-path:url(#clip-path-4);}.cls-39{clip-path:url(#clip-path-5);}.cls-40{clip-path:url(#clip-path-6);}.cls-41,.cls-52{stroke-width:3px;}.cls-42{fill:#191919;}.cls-43{fill:#3cd278;}.cls-44,.cls-49{stroke:#1258ff;}.cls-45,.cls-51{fill:#e6e6e6;}.cls-45{stroke:#e6e6e6;}.cls-46{fill:#ccc;stroke:#ccc;}.cls-47{fill:#ffddd1;}.cls-50{fill:#f03232;}</style><clipPath id="clip-path"><rect class="cls-1" x="498.43" y="110.24" width="256.58" height="188.21"/></clipPath><clipPath id="clip-path-2"><polygon class="cls-1" points="980.92 345.88 937.21 481.96 920.31 611.18 958.38 615.92 989.49 505.37 1045.5 430.63 1065.34 345.88 980.92 345.88"/></clipPath><clipPath id="clip-path-3"><path class="cls-1" d="M833.33,645.18A15.42,15.42,0,0,0,828,657.05c0,3.8,1.08,5.48,1.08,5.48l63.76,2.32a2.2,2.2,0,0,0,2.34-2v-.25c0-1.89-1.56-3.64-4.07-4.61L860.7,646.28s4.33-8-1.68-10.11c-4.37-1.56-10.46,3.73-15.89,12.08C838.26,648.25,833.33,645.18,833.33,645.18Z"/></clipPath><clipPath id="clip-path-4"><path class="cls-1" d="M728.08,645.18a15.41,15.41,0,0,0-5.36,11.87c0,3.8,1.08,5.48,1.08,5.48l63.76,2.32a2.2,2.2,0,0,0,2.34-2v-.25c0-1.89-1.55-3.64-4.06-4.61l-30.41-11.68s4.33-8-1.68-10.11c-4.37-1.56-10.47,3.73-15.89,12.08C733,648.25,728.08,645.18,728.08,645.18Z"/></clipPath><clipPath id="clip-path-5"><path class="cls-1" d="M747.18,367.37s16.75-89.46,44.48-118.16c0,0,35.37-5.88,60,6.83s44,47.07,44,47.07C844.3,348.19,850.33,386,823,385.78Z"/></clipPath><clipPath id="clip-path-6"><path class="cls-1" d="M747.18,367.37a67.1,67.1,0,0,1,23.49-4.77c12.38,0,33.7,18.5,33.7,38.14,0,81.46-37.55,143.88-37.55,143.88l-8.08,89.19H727s-16.24-77.67,7.44-114.06c-6.6-38-6.34-81.56-6.34-81.56s-7-11.14-5.41-28.76C725,384.07,747.18,367.37,747.18,367.37Z"/></clipPath></defs><title>Asset 1</title><g id="Layer_2" data-name="Layer 2"><g id="Layer_1-2" data-name="Layer 1"><g id="Colour_2" data-name="Colour 2"><path class="cls-2" d="M196.05,175.73C125.32,367.91,289,582.19,780.84,620.18c421,32.51,724.19-98.83,726.49-369.35,1.27-149.34-148.08-171.7-313.1-110.89-144.6,53.27-306.57,34.53-473.95-64C554.36-21.81,282.47-59.08,196.05,175.73Z"/><path class="cls-3" d="M669.64,599.5c-.72-26.32,25.41-56.4,53.4-56.4S764.23,559.19,754.8,571c-10.29,12.91-20.81-1.68-36.6-1.68s-31.56,12.4-37.61,30.15Z"/><path class="cls-4" d="M674.31,599.5c9.71-41.24,49.66-56.84,77-32.27"/><path class="cls-3" d="M643.61,599.5c3.35-50-18.9-85.64-68.17-88.51-25.1-1.47-48.8,13.39-42.34,30.85s29.19,6,54,11.49,39.55,23.46,46.48,46.17Z"/><path class="cls-4" d="M638.65,599.5c-7.36-64.3-58.16-82.86-101.84-58.58"/><path class="cls-5" d="M643.38,602.44c-3.59-43.43-13.89-61.78-28.73-71.79s-55.64-19-45.53-46.75,40.89-22.15,61.74-1,25.56,71.88,22.55,118.46Z"/><path class="cls-4" d="M649.26,601.82c0-60.66-16.15-104.69-74-118.57"/><path class="cls-3" d="M652.32,599.5c-13.47-40.53-17.9-85.37-2.53-133.06,12.68-39.36,28.91-54,50.28-46.26,21.8,7.87,11.8,43.83-1.94,67.77s-32,63.61-34,111.55Z"/><path class="cls-4" d="M657.19,599.5c-7.4-75.43,13.15-127.71,40.94-174.86"/><path class="cls-5" d="M663.33,601.46c-8.85-22.92-5.23-56.54,9.18-75.31,23-30,54.82-30.69,62.89-15.76,11.3,20.91-21.49,24.87-38.73,37-16.34,11.48-22.93,27.89-22.8,55.06Z"/><path class="cls-4" d="M668.31,601.92c-7-58.79,25.48-82.55,63.75-90.6"/><path class="cls-6" d="M716.08,599.5H604.65a2.35,2.35,0,0,0-2.35,2.35,2.28,2.28,0,0,0,0,.45l11,57a18.36,18.36,0,0,0,18,14.86h58a18.36,18.36,0,0,0,18-14.86l11-57a2.35,2.35,0,0,0-1.86-2.76A2.58,2.58,0,0,0,716.08,599.5Z"/><line class="cls-7" x1="715.51" y1="617.15" x2="605.22" y2="617.15"/><rect class="cls-8" x="1162.92" y="194.77" width="77.85" height="111.86" rx="10"/><rect class="cls-9" x="1157.92" y="194.77" width="77.85" height="111.86" rx="10"/><circle class="cls-10" cx="1181.61" cy="284" r="10.82"/><circle class="cls-6" cx="1181.61" cy="250.7" r="10.82"/><circle class="cls-8" cx="1181.61" cy="217.4" r="10.82"/><circle class="cls-11" cx="1212.1" cy="284" r="10.82"/><circle class="cls-12" cx="1212.1" cy="250.7" r="10.82"/><circle class="cls-5" cx="1212.1" cy="217.4" r="10.82"/><line class="cls-4" x1="216.66" y1="231.27" x2="137.09" y2="673.66"/><line class="cls-4" x1="346.96" y1="673.66" x2="267.39" y2="231.27"/><line class="cls-4" x1="242.03" y1="215.66" x2="242.03" y2="673.66"/><path class="cls-12" d="M90.1,295h28v171.8h-28a5,5,0,0,1-5-5V300A5,5,0,0,1,90.1,295Z"/><path class="cls-9" d="M118.05,323.25V294.94H386.31a5,5,0,0,1,5,5v23.31H118.05Z"/><rect class="cls-13" x="118.06" y="323.26" width="136.63" height="143.53"/><path class="cls-9" d="M254.69,466.79V323.25H391.32V461.79a5,5,0,0,1-5,5Z"/><rect class="cls-14" x="93.41" y="305.87" width="16.34" height="16.34" rx="1"/><rect class="cls-13" x="93.41" y="332.25" width="16.34" height="16.34" rx="1"/><rect class="cls-14" x="93.41" y="358.63" width="16.34" height="16.34" rx="1"/><rect class="cls-14" x="93.41" y="385" width="16.34" height="16.34" rx="1"/><line class="cls-15" x1="118.05" y1="323.26" x2="391.31" y2="323.26"/><line class="cls-15" x1="254.68" y1="323.26" x2="254.68" y2="466.79"/><rect class="cls-12" x="327.3" y="303.78" width="38.46" height="10.64" rx="1"/><rect class="cls-2" x="129.73" y="336.44" width="112.3" height="49.1" rx="1"/><rect class="cls-13" x="269.44" y="336.44" width="49.37" height="34.55" rx="1"/><rect class="cls-13" x="327.19" y="336.44" width="49.37" height="34.55" rx="1"/><rect class="cls-13" x="269.44" y="380.1" width="49.37" height="34.55" rx="1"/><rect class="cls-13" x="327.19" y="380.1" width="49.37" height="34.55" rx="1"/><circle class="cls-2" cx="101.58" cy="447.48" r="8.17"/><line class="cls-7" x1="129.73" y1="309.1" x2="232.76" y2="309.1"/><rect class="cls-5" x="162.84" y="461.01" width="158.37" height="11.57" rx="3"/><rect class="cls-5" x="217.71" y="289.16" width="48.63" height="11.57" rx="3"/><line class="cls-4" x1="203.89" y1="472.57" x2="281.02" y2="472.57"/><line class="cls-4" x1="230.23" y1="289.16" x2="254.68" y2="289.16"/><path class="cls-4" d="M191.47,367c15.33,43.47,61.49,53.86,91.18,36.82"/><polyline class="cls-4" points="190.03 370 191.47 366.94 194.53 368.38"/><polyline class="cls-4" points="279.39 402.84 282.65 403.76 281.72 407.01"/><path class="cls-16" d="M91.79,389.29c5.23-5.14,12.77-7.63,6,0s-3.09,8.26,2.51,3.26c8.45-7.55,10.45-5.06,3.74,2.47-6.47,7.27-4.93,8.33,1.84,2.33s7.53-3.83,5.2.08-1.71,5.49,1.46,2.06"/><path class="cls-4" d="M129.73,305.22c11.24-6.12,23.17-8.45,21.43-5.71-5.79,5.11-30.72,14.86-7.37,9,8.18-3,24.62-9.12,25.32-5.87-4.41,3.5-19.86,10.9-2.17,5.72,43.47-16.77,8,.73,15.71-.09,49-14.76.76,4.57,27.72-3"/><polyline class="cls-4" points="308.14 362.22 309.82 363.9 314.95 358.77"/><circle class="cls-4" cx="365.76" cy="363.1" r="4.22"/><path class="cls-4" d="M135.73,395.2v4.87c17.54-.56,34.33-.39,46.65,0v-4.85"/><line class="cls-4" x1="159.05" y1="399.71" x2="159.05" y2="404.36"/><path class="cls-4" d="M146.8,420.42c2.26-1.13,5.24-.71,7.14,0s6.06-1.41,10.76-.35,5.59-1.21,8.83.07a12.34,12.34,0,0,0,8.3.43"/><path class="cls-4" d="M146.8,431.62c4.17-1.19,3.62.59,7.83,0s5.26.73,7.45.12,3.73-.74,7.12.17,8.33,1.71,10.19,0"/><path class="cls-4" d="M146.8,443.77c4.11-1.84,4.28,1.43,8.45,0s5.29,2.17,8.74.37,3.57,1.61,7.49-.21,7.26,2.17,10.29,0"/><circle class="cls-6" cx="138.12" cy="421.1" r="2.07"/><circle class="cls-6" cx="138.12" cy="432.06" r="2.07"/><circle class="cls-6" cx="137.84" cy="442.6" r="2.07"/><path class="cls-4" d="M292.19,308.5c7.28-.71,23.09.71,28.69,0"/><polyline class="cls-4" points="318.26 306.36 320.88 308.5 318.74 311.12"/><path class="cls-5" d="M1410.43,389.13c6,2.79,12.14,14.32,23.92,16.24,10.77,1.75,16.72,6.08,17.18,19.63.49,14.09,6.62,18.48,15.09,23.56,10.43,6.26,13.45,13,13.37,29.06-.06,12.49,2.19,20,12.21,26.36,11.35,7.17,8.34,25.46-7.84,31s-31.06-2-29.62-17.59c1.13-12.31-.25-23.16-8.15-28.46-13.51-9-12.38-15.93-11.7-29.87.6-12.39-.88-18.92-11.28-22.62-8.66-3.08-13.54-8.38-14-21.07-.32-9.71-6.13-15.61-6.92-20.15C1401.59,388.62,1405.43,386.79,1410.43,389.13Z"/><path class="cls-4" d="M1488.93,574.63c0-57.25-29.46-112.2-69.28-163.17"/><path class="cls-5" d="M1530.39,536.42c14,15.2,30.33,8.58,33.28-9.08,1.9-11.39,8.52-16.19,17.65-15.64,8.18.49,16.54.57,25.78-5.62,5.85-3.93,13.49-4.6,18.78-5.18,9.26-1,8.71-11.7-2-13.27-6.19-.9-14.67-.7-19.52-4.49-7.76-6.06-17.3-6.28-22.88,0s-17.13,12.13-32.5,14.05C1531.53,499.39,1514.36,519,1530.39,536.42Z"/><path class="cls-4" d="M1521.78,574.63c0-50.08,37.32-82.63,88.4-79.12"/><path class="cls-5" d="M1460.12,312.8c8.08,2.2,14.05,14.28,24.7,17.16,14.21,3.83,20.52,9.91,19,26.17-1.68,18.17,4.59,26.66,14.28,32.35,13,7.66,16.23,25.91,8.22,39.17-8.18,13.55-7.25,23.75-2.31,32.66,11,19.86,2,34.32-15.66,34.94s-26.54-14.84-23-30.52c2.66-11.82,4.3-20.69-5.37-28.33s-8.17-24.13-4.29-32.69c5.38-11.91,2.63-21.08-8.12-25.77-9.65-4.22-15.2-11.44-14.76-25.56.35-11.09-7.54-19.78-7.54-27.21C1445.28,314.77,1452.25,310.66,1460.12,312.8Z"/><path class="cls-4" d="M1470.62,343.4c41.41,59.3,41.49,142.75,33.88,231.23"/><path class="cls-6" d="M1457.42,574.63h94.17A2.37,2.37,0,0,1,1554,577a2.83,2.83,0,0,1,0,.29l-11.3,91.7a6,6,0,0,1-5.9,5.22h-64.47a6,6,0,0,1-5.9-5.22l-11.3-91.65a2.37,2.37,0,0,1,2-2.69Z"/><line class="cls-7" x1="1454.74" y1="588.97" x2="1554.27" y2="588.97"/><rect class="cls-8" x="503.34" y="115.55" width="256.68" height="222.3" rx="10"/><path class="cls-9" d="M755,125.55v28.91H498.43V125.55a10,10,0,0,1,10-10H745A10,10,0,0,1,755,125.55Z"/><path class="cls-9" d="M498.43,298.45H755v29.4a10,10,0,0,1-10,10H508.43a10,10,0,0,1-10-10v-29.4Z"/><circle class="cls-5" cx="586.04" cy="135.83" r="4.1"/><circle class="cls-5" cx="600.63" cy="135.83" r="4.1"/><path class="cls-5" d="M569.12,130.09H520.67a5.75,5.75,0,0,0,0,11.49h48.45a5.75,5.75,0,0,0,.48-11.49Z"/><circle class="cls-12" cx="526.14" cy="317.33" r="11.4"/><polygon class="cls-9" points="530.4 317.33 523.66 313.44 523.66 321.22 530.4 317.33"/><path class="cls-5" d="M549.82,314.83h176.6a2.5,2.5,0,0,1,2.5,2.5h0a2.5,2.5,0,0,1-2.5,2.5H549.82a2.5,2.5,0,0,1-2.5-2.5h0A2.5,2.5,0,0,1,549.82,314.83Z"/><path class="cls-12" d="M549.82,314.83h80.59v5H549.82a2.5,2.5,0,0,1-2.5-2.5h0A2.5,2.5,0,0,1,549.82,314.83Z"/><rect class="cls-13" x="498.43" y="154.46" width="256.58" height="143.99"/><g class="cls-17"><path class="cls-12" d="M672.61,210.34l30.84,51.72-5,34.07c-27.93,0-38.3-41.07-38.3-41.07Z"/><path class="cls-12" d="M622.87,196.65,650.25,309l10.94,90.32h28.25l-27.7-79.52C668,284.2,675.5,245.67,672.61,210.3,659.26,199.86,641.79,199.46,622.87,196.65Z"/><path class="cls-18" d="M595.55,339l-17.11-26.6s7.11-16.77,13.13-45.05"/><path class="cls-13" d="M572.9,344.39h85.34l-7-40.92c1.42-48.8,0-79.94-7.54-94.55-7-13.47-19-12.27-19-12.27s-32.64-.24-61.67,13.69Z"/><path class="cls-12" d="M622.87,196.65,620.56,199c-13.07-1-13,11-1.27,47.42,14.32,44.36,12.78,70.26,12.78,70.26l-34.73,62A40.55,40.55,0,0,1,562,399.35H529l33.48-82.73s-3.32-83.31.57-106.28C587.47,196.76,605.57,196.65,622.87,196.65Z"/><path class="cls-19" d="M617.68,327.47s-34.22,19.58-67.48,19.58l5.3-13.1C572.3,334.6,617.68,327.47,617.68,327.47Z"/><path class="cls-12" d="M563.09,210.34c-16.23,22.49-35.86,76.57-30,119.88,26.44,12.72,84.61-2.75,84.61-2.75Z"/><path class="cls-18" d="M577.18,260.73s-10,28.74-11.41,47.67"/><path class="cls-18" d="M673.77,229.31c1,26.93-6.9,61.53-12,90.52l27.7,79.52"/><path class="cls-20" d="M601.74,203.11a101.48,101.48,0,0,0-9.62,18.82h14.94l-11.51,15.84,27.32,53.68"/><path class="cls-20" d="M651.93,207.3s8.35,7.5,10.39,14.63h-7l11.36,15.84-10.35,65"/><path class="cls-21" d="M621.18,154.76l-7.32,48.76c6,10.85,23.64,15.61,28,8.5l4.4-38.46Z"/><path class="cls-19" d="M643.42,198l1.77-15.47L629,181C628.19,188.63,635.67,197.14,643.42,198Z"/><path class="cls-21" d="M621.18,154.76c1-9.24,8.62-16.84,17.9-15.88,12.3,1.27,18.91,7.31,18.52,18.56-.42,12.18-3.75,25.3-5.78,29.21s-4.8,6.09-8.61,5.7c-6.23-.64-15-4-18.69-11.47C621.05,173.84,619.65,169.52,621.18,154.76Z"/><path d="M629.19,165.56a.92.92,0,0,0-1.26.36,1,1,0,0,0-.07.15c-3.37,10-3.47,18.28-1.41,24.12,3.44,9.71,12.21,13.88,21.84,11.3,8.23-2.2,9.11-15.77,6-22.1-1.17,4.45-2.89.8-5.49.54-6.41-.65-11.53,2.38-16.07-3.3-2.31-2.88-2.91-4.89-2.23-8.14a2.73,2.73,0,0,0-1.33-2.93Z"/><path class="cls-12" d="M701.81,229.27c.78-3,6.93-3.93,14.51-2.89,8.08,1.11,11.58,3.72,11.56,7.13,0,6.14-1,54.22-29.43,62.62l-9-26.28S700,236.14,701.81,229.27Z"/><path class="cls-21" d="M729.39,182.79l.19-.43a2.89,2.89,0,0,0-1.3-3.77l-1.67,2.82v.14l-1.91,4.08v.18l-1.32,3.82-.92-.1-.37-6.23.88-5.43.14-.61a3.75,3.75,0,0,0-2.62-4.43l-1.39,4V177l-1.47,5.63h0v.24h0l-.81,6.54h-.44l-2-7.07-.39-6.41v-1.06A3.73,3.73,0,0,0,710.6,171l-.66,4.66v.24l-.11,6.78V183h0l.85,7.1-.87.18-2.16-4.8-1.3-5.35-.08-.57a3.75,3.75,0,0,0-4-3.22l.11,4.22v.24l.85,5.74h0v.21h0l1.53,6.25.52,7.47,0-.05-1.25-3a4.8,4.8,0,0,0-6-2.71l2.09,8.1h0l.06.19v.09l.06.15.06.11a.24.24,0,0,0,.06.11.64.64,0,0,0,.08.14.22.22,0,0,0,0,.08l.11.15h0l7.4,9.5h0l.08.09.25.3.16.18.2.21.23.23.15.14.29.26.1.09.34.28.07.06.37.28h.06l.39.27h.07l.38.23.11.07.35.19.17.08.3.15.24.11.24.1.31.12.17.07.38.13h.12l.43.13H714l.46.1h.07l.46.08h.09l.44.06h2.69l.5-.08h.06l.51-.1h0a2.07,2.07,0,0,0,.49-.12h.06l.44-.13h.1l.33-.12.2-.07.2-.09.33-.13.09-.05.42-.2h0l.45-.25h0l.45-.28h0l.42-.29h.08l.37-.29h0l.2-.11.42-.36.14-.13.35-.34.17-.17.35-.39.22-.26.17-.22.22-.28.15-.22c.06-.1.13-.19.2-.29l.29-.48c0-.08.08-.16.13-.24l.18-.34a2,2,0,0,1,.1-.21l.19-.42v-.09h0a11.36,11.36,0,0,0,.85-5.15l-1-13.86.71-4.73Z"/><path class="cls-18" d="M720.73,204.54a9.64,9.64,0,0,0-10-3.29"/><path class="cls-21" d="M724.91,211.85l-13.35-7.35L706.45,230a18.11,18.11,0,0,0,9.21,4.64c5.76,1.11,8.36-2.43,8.36-2.43Z"/><line class="cls-18" x1="699.75" y1="236.42" x2="693.29" y2="257.51"/><circle class="cls-18" cx="644.29" cy="166.15" r="4.56"/><circle class="cls-18" cx="658.61" cy="168.69" r="4.56"/><line class="cls-18" x1="648.78" y1="166.95" x2="654.12" y2="167.89"/><path class="cls-18" d="M639.8,165.35l-11-2c-3.12-.53-5.19.26-6,2.07"/><path class="cls-22" d="M737.13,184.28A15.64,15.64,0,0,0,727.92,170"/><path class="cls-22" d="M739.81,172a22,22,0,0,0-18.34-9.79"/><path class="cls-22" d="M743.52,184.28a22,22,0,0,0-1.25-7.33"/><rect class="cls-13" x="527.03" y="299" width="169.49" height="110.96"/></g><path d="M956.3,596.46l-5.7,44.93s2.71,4.15,2.71,22.27H876.38v-4.07a18.61,18.61,0,0,1,16-18.43L918,637.51a5.53,5.53,0,0,0,4.7-4.76l5.3-40.5Z"/><polygon class="cls-23" points="953.31 663.66 955.31 673.66 874.38 673.66 876.38 663.66 953.31 663.66"/><circle class="cls-24" cx="931.86" cy="620.18" r="1.77"/><circle class="cls-24" cx="930.72" cy="628.93" r="1.77"/><path class="cls-25" d="M902.65,663.66c0-6.8-2-12.8-5-16.34"/><path class="cls-25" d="M956.3,596.46l-5.7,44.93s2.71,4.15,2.71,22.27"/><polygon class="cls-12" points="980.92 345.88 937.21 481.96 920.31 611.18 958.38 615.92 989.49 505.37 1045.5 430.63 1065.34 345.88 980.92 345.88"/><g class="cls-26"><path class="cls-19" d="M989.49,505.37c1.17-53.31,12-102,28.4-115.85s35.61,24.59,22.34,56.36S1011,493.28,989.49,505.37Z"/></g><line class="cls-22" x1="949.31" y1="504.72" x2="952.79" y2="594.86"/><polygon class="cls-23" points="1065.72 672.61 1017.18 672.61 1018.18 663.91 1064.72 663.91 1065.72 672.61"/><path d="M1047.29,619.11h-22.24c0,25.89-6.87,29.47-6.87,44.8L1038,653.35l17,6.31C1055,646.66,1047.29,640.13,1047.29,619.11Z"/><path d="M1064.72,663.91c0-11.31-10.42-20.47-23.27-20.47s-23.27,9.16-23.27,20.47Z"/><path class="cls-25" d="M1064.72,663.91h-46.54c0-11.31,10.42-20.47,23.27-20.47"/><circle class="cls-24" cx="1032.32" cy="626.32" r="1.77"/><circle class="cls-24" cx="1032.32" cy="635.15" r="1.77"/><circle class="cls-24" cx="1041.91" cy="626.32" r="1.77"/><circle class="cls-24" cx="1041.91" cy="635.15" r="1.77"/><path class="cls-11" d="M1051,215.39c39.88,19.3,58.56,47.89,58.56,47.89s-44.19,45.24-44.19,82.6H980.92c0-95.91,17.24-135.81,17.24-135.81S1017.43,206.53,1051,215.39Z"/><path class="cls-11" d="M1109.53,263.28s4.13,13.48,4.13,43.38c0,6.08-10,8.63-21.65,8.63s-26.67-1.26-26.67-7.4C1065.34,282.75,1088.54,263.28,1109.53,263.28Z"/><path class="cls-11" d="M998.16,210.07s-36.84,21.2-42.39,25.48c-4.8,3.7-6.62,14.47,0,26.52,7.56,13.74,20.22,18.62,26.3,15.57a63,63,0,0,0,13.87-10C1000.93,259,1002.71,230.91,998.16,210.07Z"/><path class="cls-12" d="M1065.34,345.88c13.59,16.07,13.59,38.2,13.59,38.2,0,37.05-14.1,124.84-14.1,124.84l-12.56,110.19h-32l-11.9-111.24-11.62-162Z"/><line class="cls-18" x1="920.31" y1="611.18" x2="958.38" y2="615.92"/><line class="cls-18" x1="1020.26" y1="619.11" x2="1052.27" y2="619.11"/><path class="cls-27" d="M1072.46,181.16l-10.34,44.6c-8.88,7.32-25.74,5.4-27-2.22l9.33-34.71Z"/><path class="cls-19" d="M1038.51,210.85l3.75-14,14.51,4.22C1054.83,208,1045.47,212.8,1038.51,210.85Z"/><path class="cls-27" d="M1072.46,181.16c2.33-8.31-1.7-17.49-10-19.83-11-3.1-18.82-.14-22.33,9.7-3.79,10.66-5.4,23.13-5,27.2s2.06,6.9,5.49,7.86c5.59,1.57,14.29,1.7,20.05-3.52C1066.05,197.67,1068.73,194.42,1072.46,181.16Z"/><path d="M1068.5,197.47c5.56-5.28,11-17.36,11.58-24.1.65-8.09-4.68-14.07-8.43-12.4,0-4.48-10.26-11.24-20.67-9.09-12.16,2.5-14.22,6.89-19.9,5.55.22,6.53,4.67,13.81,13.71,16.69,7.62,2.42,11.76-4.79,15.79-.61,2.21,2.28-3,11.14,3.38,12.65C1071.21,187.88,1064.87,196.75,1068.5,197.47Z"/><path class="cls-19" d="M1042,191.82l-.25.94a.86.86,0,0,1-1,.62.7.7,0,0,1-.2-.08,3.37,3.37,0,0,1-2-3.34A7.41,7.41,0,0,0,1042,191.82Z"/><path class="cls-18" d="M1041.63,180.58a4.91,4.91,0,0,1-9.58-2.14,2.46,2.46,0,0,1,.07-.29Z"/><path class="cls-18" d="M1055.22,184.05a4.9,4.9,0,1,1-9.5-2.42h0Z"/><path class="cls-18" d="M1041.63,180.58a2.1,2.1,0,0,1,2.55-1.52h0a2.12,2.12,0,0,1,1.53,2.57"/><line class="cls-18" x1="1068.95" y1="187.36" x2="1055.22" y2="184.05"/><path class="cls-27" d="M1071.93,308.64c0-3.84,6.58-6.67,18.85-6.67s18.84,1.41,18.84,5.71c0,28.59-14.34,53.49-14.34,53.49s-23.35-12.47-23.35-29.17Z"/><path class="cls-27" d="M980.92,267.13c-20.28,21.77-50.39,20.38-50.39,20.38s-2.21-29.89,10.79-40.39A48.36,48.36,0,0,1,955.85,239C970,236.11,978.21,253.63,980.92,267.13Z"/><path class="cls-27" d="M939.06,202.68,928.5,189l-8.38-7.12-11.56-3.43s-.32,2.64,1.2,4.13,7.81,3.58,7.81,3.58l3.79,3.93-6.41.37-3.2,1.68a4.68,4.68,0,0,0-2.46,4.74l1.19,9.22a5.42,5.42,0,0,0,3.41-1.42,3.79,3.79,0,0,0,.92-2.75s4.67,6.21,7.4,7.72a20.83,20.83,0,0,0,3.37,1.44,34.86,34.86,0,0,0,5.71,1.35s-6.2,48-.76,75.11c0,0,23.76-12.93,22.18-20.76Z"/><line class="cls-22" x1="946.34" y1="236.87" x2="950.86" y2="258.06"/><path class="cls-22" d="M980.92,345.88c0-57.93,6.29-89.71,11.27-112.92"/><circle class="cls-25" cx="1003.7" cy="359.82" r="2.53"/><path class="cls-22" d="M996.74,356.08v29.13c0,6.72,3.37,11.52,7.43,11.52"/><path class="cls-22" d="M1042.8,359c0,14.14,8.88,25.59,19.85,25.59"/><line class="cls-22" x1="1005.51" y1="468.1" x2="1000.45" y2="412.13"/><g class="cls-28"><rect class="cls-13" x="808.4" y="133.51" width="145.98" height="81.92" rx="5"/></g><rect class="cls-4" x="826.23" y="151.25" width="28.24" height="9.1"/><rect class="cls-4" x="867.28" y="151.25" width="28.24" height="9.1"/><rect class="cls-4" x="867.28" y="169.92" width="28.24" height="9.1"/><rect class="cls-4" x="867.28" y="188.59" width="28.24" height="9.1"/><rect class="cls-4" x="908.32" y="151.25" width="28.24" height="9.1"/><circle class="cls-4" cx="922.44" cy="183.83" r="7.82"/><rect class="cls-4" x="828.82" y="178.3" width="11.06" height="11.06" transform="translate(114.39 643.82) rotate(-45)"/><line class="cls-4" x1="895.52" y1="155.8" x2="908.32" y2="155.8"/><line class="cls-4" x1="854.47" y1="155.8" x2="867.08" y2="155.8"/><line class="cls-4" x1="881.01" y1="160.35" x2="881.01" y2="169.92"/><line class="cls-4" x1="881.01" y1="179.02" x2="881.01" y2="188.59"/><line class="cls-4" x1="922.44" y1="160.35" x2="922.44" y2="169.92"/><polyline class="cls-4" points="924.83 167.53 922.44 169.92 920.05 167.53"/><line class="cls-4" x1="847.32" y1="174.47" x2="856.89" y2="174.47"/><polyline class="cls-4" points="854.5 172.08 856.89 174.47 854.5 176.86"/><line class="cls-4" x1="847.32" y1="193.14" x2="856.89" y2="193.14"/><polyline class="cls-4" points="854.5 190.75 856.89 193.14 854.5 195.53"/><line class="cls-4" x1="842.17" y1="183.83" x2="847.32" y2="183.83"/><line class="cls-4" x1="847.32" y1="174.47" x2="847.32" y2="193.14"/><path class="cls-2" d="M1010.71,282.19H998.15a1.44,1.44,0,0,0-1.44,1.46,1.21,1.21,0,0,0,0,.19l3.64,26.82a1.45,1.45,0,0,0,.83,1.13c1.28.57,4.29,1.6,9.52,1.6s8.24-1,9.52-1.6a1.4,1.4,0,0,0,.83-1.13l3.65-26.82a1.45,1.45,0,0,0-1.24-1.64h-12.76Z"/><path class="cls-19" d="M1035.66,306l-5,10.66c13.15,16.93,26.25,35.52,43.52,44.34a53.33,53.33,0,0,0-8.82-15.09,66.73,66.73,0,0,1,4.43-22.47Z"/><path class="cls-27" d="M1035.66,301l36.27,18.54,23.35,41.66c-19.73,0-50.06-25.62-68.08-48.82Z"/><line class="cls-22" x1="1060.2" y1="313.43" x2="1082.86" y2="324.79"/><path class="cls-27" d="M1022.75,285.17l-7.67,1.5-5.16,1.76-4,2.92.55.86a3,3,0,0,0,3.93,1l1.51-.81,3.29.2-3.37,1.4a4.19,4.19,0,0,0-2,1.6l-2.27,3.39,5.11,6.79a4.51,4.51,0,0,0,3.15,1.87,5.85,5.85,0,0,0,2.92-.49l3-1.36c1.65,3.53,3.43,6,5.43,6.54,4.08,1.13,10.41-5.18,8.46-11.38-1.17-3.71-4-8.68-6-12.08A7.72,7.72,0,0,0,1022.75,285.17Z"/><line class="cls-22" x1="1026.95" y1="303.45" x2="1027.83" y2="292.93"/><path class="cls-29" d="M1010.71,269.86c-4.82-12.32,6.24-17,6.24-23.71a4.81,4.81,0,0,0-7.68-3.81"/><path class="cls-30" d="M791.66,249.21s-25,16.49-34.13,25.62c-4,4-4.62,16.94,0,22.38,5.84,6.87,17.67,9.64,17.67,9.64s33-6.78,33-23.72S791.66,249.21,791.66,249.21Z"/><path class="cls-31" d="M758.74,278c-7.4,4.18-28.1,29.51-28.1,29.51,6.81,31.06,45.43,39.54,45.43,39.54S781.89,292.48,758.74,278Z"/><path class="cls-32" d="M776.72,271.85c-13.73,15.66-30,39.59-27.76,45s9.86,15.78,20,15.78S785.31,275.75,776.72,271.85Z"/><g class="cls-28"><rect class="cls-13" x="866.36" y="274.33" width="145.98" height="81.92" rx="5"/></g><line class="cls-7" x1="985.63" y1="337.85" x2="985.63" y2="287.53"/><line class="cls-7" x1="967.74" y1="337.85" x2="967.74" y2="287.53"/><line class="cls-7" x1="949.85" y1="337.85" x2="949.85" y2="287.53"/><line class="cls-7" x1="931.97" y1="337.85" x2="931.97" y2="287.53"/><line class="cls-7" x1="914.08" y1="337.85" x2="914.08" y2="287.53"/><line class="cls-7" x1="896.19" y1="337.85" x2="896.19" y2="287.53"/><line class="cls-4" x1="888.99" y1="337.85" x2="992.83" y2="337.85"/><path class="cls-4" d="M879.48,289.29c16.45,0,16.42,27.53,29,27.53s12.78-19.61,23-19.61c7.87,0,7.87,10.33,21.15,10.33,8.54,0,10-12.77,20-12.77,9.3,0,10.62,7.4,19.57,7.4"/><circle class="cls-33" cx="952.63" cy="307.54" r="4.43"/><circle class="cls-33" cx="930.66" cy="297.21" r="4.43"/><circle class="cls-33" cx="909.3" cy="316.82" r="4.43"/><rect class="cls-31" x="728.08" y="615.07" width="23.83" height="41.12"/><rect class="cls-31" x="833.46" y="615.07" width="23.83" height="41.12"/><path class="cls-11" d="M833.33,645.18A15.42,15.42,0,0,0,828,657.05c0,3.8,1.08,5.48,1.08,5.48l63.76,2.32a2.2,2.2,0,0,0,2.34-2v-.25c0-1.89-1.56-3.64-4.07-4.61L860.7,646.28s4.33-8-1.68-10.11c-4.37-1.56-10.46,3.73-15.89,12.08C838.26,648.25,833.33,645.18,833.33,645.18Z"/><g class="cls-34"><rect class="cls-35" x="867.37" y="652.55" width="25.92" height="7.82" transform="translate(-128.35 1090.61) rotate(-60)"/><rect class="cls-35" x="851.62" y="652.54" width="25.92" height="7.82" transform="translate(-136.21 1076.97) rotate(-60)"/></g><path class="cls-36" d="M833.33,645.18A15.42,15.42,0,0,0,828,657.05c0,3.8,1.08,5.48,1.08,5.48l63.76,2.32a2.2,2.2,0,0,0,2.34-2v-.25c0-1.89-1.56-3.64-4.07-4.61L860.7,646.28s4.33-8-1.68-10.11c-4.37-1.56-10.46,3.73-15.89,12.08C838.26,648.25,833.33,645.18,833.33,645.18Z"/><path class="cls-37" d="M827.49,673.66h68.6l-.67-6.16a3,3,0,0,0-2.85-2.66l-63.52-2.31Z"/><path class="cls-11" d="M728.08,645.18a15.41,15.41,0,0,0-5.36,11.87c0,3.8,1.08,5.48,1.08,5.48l63.76,2.32a2.2,2.2,0,0,0,2.34-2v-.25c0-1.89-1.55-3.64-4.06-4.61l-30.41-11.68s4.33-8-1.68-10.11c-4.37-1.56-10.47,3.73-15.89,12.08C733,648.25,728.08,645.18,728.08,645.18Z"/><g class="cls-38"><rect class="cls-35" x="762.13" y="652.54" width="25.92" height="7.82" transform="translate(-180.96 999.47) rotate(-60)"/><rect class="cls-35" x="746.38" y="652.54" width="25.92" height="7.82" transform="translate(-188.83 985.83) rotate(-60)"/></g><path class="cls-36" d="M728.08,645.18a15.41,15.41,0,0,0-5.36,11.87c0,3.8,1.08,5.48,1.08,5.48l63.76,2.32a2.2,2.2,0,0,0,2.34-2v-.25c0-1.89-1.55-3.64-4.06-4.61l-30.41-11.68s4.33-8-1.68-10.11c-4.37-1.56-10.47,3.73-15.89,12.08C733,648.25,728.08,645.18,728.08,645.18Z"/><path class="cls-37" d="M722.24,673.66h68.6l-.66-6.16a3,3,0,0,0-2.85-2.66l-63.53-2.31Z"/><path class="cls-21" d="M888.61,242.37c2.41,4.33,4.82,9.14,1.89,10.51s-9.1-3-9.1-3Z"/><path class="cls-31" d="M855.1,219.61c5.56-13.15,18.61-11.18,24.49-8.7,8.6,3.64,16.42,14.56,10.76,27.93a213.38,213.38,0,0,1-11.6,23,4.23,4.23,0,0,1-3.93,2.11,24.27,24.27,0,0,1-5.91-1.1L862.42,273l-27.83-11.77,20.13-29.09A15.84,15.84,0,0,1,855.1,219.61Z"/><line class="cls-18" x1="866.38" y1="266.82" x2="872.04" y2="258.01"/><path class="cls-31" d="M895.65,303.11l3.82,65.38-10.18,34.88s-27.57-23.32-27.57-56.65C861.72,319.12,895.65,303.11,895.65,303.11Z"/><path class="cls-30" d="M747.18,367.37s16.75-89.46,44.48-118.16c0,0,35.37-5.88,60,6.83s44,47.07,44,47.07C844.3,348.19,850.33,386,823,385.78Z"/><g class="cls-39"><path class="cls-19" d="M823,385.78c22.39-13.74,20.85-46.34,42.65-49.9,13.87-2.26,5,21.37-3.93,33.15S845,385.78,823,385.78Z"/></g><path class="cls-12" d="M747.18,367.37a67.1,67.1,0,0,1,23.49-4.77c12.38,0,33.7,18.5,33.7,38.14,0,81.46-37.55,143.88-37.55,143.88l-8.08,89.19H727s-16.24-77.67,7.44-114.06c-6.6-38-6.34-81.56-6.34-81.56s-7-11.14-5.41-28.76C725,384.07,747.18,367.37,747.18,367.37Z"/><g class="cls-40"><path class="cls-19" d="M787.85,428.19c-36.58,0-6.62,70-13.76,102.48,13.76-13.92,36.12-62.94,36.12-79.72S800.32,428.19,787.85,428.19Z"/></g><path class="cls-37" d="M878.62,195.44c-6.63,4.26-8.41,10-6.07,13.62s7.29,3.31,13.38-.61,6.23-7.72,3.89-11.36S883.21,192.49,878.62,195.44Z"/><path class="cls-37" d="M875,237.85c3.35,5.48,8.21,6.91,11.48,4.92s3.25-6.13.18-11.17-6.37-5.13-9.64-3.14S872.73,234,875,237.85Z"/><path class="cls-37" d="M846.72,199.4c0,8.13,3.86,11.57,8.2,11.57s6.33-5.63,6.33-11.57-1.93-10.52-7.26-10.52S846.72,192.83,846.72,199.4Z"/><path class="cls-37" d="M846,200.74c-7.46-2.44-11.55.94-13.17,5.9s2.29,9.14,7.66,10.91,10.15,1.21,12.28-5.28S851.59,202.6,846,200.74Z"/><path class="cls-37" d="M890.17,219.28c-7.86,0-10.69,4.1-10.69,8.87s5,7.29,10.69,7.29,10-1.84,10-8.08S896.1,219.28,890.17,219.28Z"/><path class="cls-37" d="M854.64,237.75c-6.8,0-9.25,4.44-9.25,9.61s4.36,7.89,9.25,7.89,8.68-2,8.68-8.75S859.78,237.75,854.64,237.75Z"/><path class="cls-37" d="M833.84,240.29c1,4.11,4.22,7,10.88,5.43s7.8-4.58,7.19-7.17-1.94-8.22-8.59-6.66S833,236.74,833.84,240.29Z"/><path class="cls-37" d="M890.55,221.41c6.65-1.62,11.72-5.15,10.27-11s-6-6.44-10.21-5.41-13.3,3.24-11.85,9.15S884.81,222.81,890.55,221.41Z"/><path class="cls-37" d="M842,216.39c-6.47,0-12.94,4-12.94,9.84s6.47,7.64,12.94,7.64,10.9-3.18,10.9-7.64S849.79,216.39,842,216.39Z"/><path class="cls-37" d="M869.94,188.88c-4.35,0-8.69,4.63-8.69,11.43s4.34,8.86,8.69,8.86,7.32-3.69,7.32-8.86S875.2,188.88,869.94,188.88Z"/><path class="cls-37" d="M865.88,232.77c-3.86,1.58-6,7.44-3.4,13.74s7.22,6.61,11.09,5,5.12-6.08,3.16-10.87S870.57,230.85,865.88,232.77Z"/><path class="cls-37" d="M860,202.27c-10.27,0-20.24,6.9-20.24,20.39,0,11.08,5.38,23.49,17,23.49s28-11,28-21.93S875.06,202.27,860,202.27Z"/><path class="cls-31" d="M934.13,316.35c-.3,1.37-1.94,2.74-3.08,3.94a5.59,5.59,0,0,0-1.2,3.37c2.43-1.24,4.88-2.24,6.42-3.2,3-1.86,11-11,13-12.32a4.52,4.52,0,0,1,3.4-.6.53.53,0,0,1,.41.61.64.64,0,0,1-.08.19l-7.79,11.57a113.74,113.74,0,0,1-.49,12.52,4.92,4.92,0,0,1-1.71,3.23,107,107,0,0,1-13,9.48s-18.94,52.07-40.72,58.23l-2.37-36c8.05-11.61,35-30.32,35-30.32-1.47-3.13-1-12.57,1-15.22l10-9.23A4,4,0,0,1,934.13,316.35Z"/><line class="cls-18" x1="898.42" y1="350.46" x2="899.47" y2="368.49"/><path class="cls-30" d="M895.65,303.11,900,349.88l-40.65,15s-9.49-24.48-9.49-43.79S873,289.21,895.65,303.11Z"/><path class="cls-18" d="M761.31,311.54c5.08-16.17,11.43-33,18.88-46.25"/><rect class="cls-14" x="724.45" y="618.96" width="35.63" height="14.85"/><line class="cls-4" x1="959.92" y1="345.88" x2="992.83" y2="345.88"/><line class="cls-4" x1="938.84" y1="345.88" x2="949.84" y2="345.88"/><line class="cls-18" x1="859.33" y1="364.87" x2="852.11" y2="340.12"/><path class="cls-12" d="M770.67,362.6c33.17,0,50.74,7.25,63.87,20.59,6.85,7,1.41,14.57,1.41,14.57l36,108.12-10.4,127.93h-33.5s-11.75-60.34-6.74-107.13c-31.31-31.29-62.57-96.23-62.57-122.06S770.67,362.6,770.67,362.6Z"/><path class="cls-18" d="M821.32,526.68c-22.56-22.56-38.43-53.18-50.67-80-6.31-13.82-20.07-9.08-20.07-9.08"/><path class="cls-18" d="M829,392c-3-6.23-7.6-8.58-12.09-10.78"/><rect class="cls-14" x="825.57" y="618.96" width="37.2" height="14.85"/><line class="cls-22" x1="1602.18" y1="673.66" x2="1634.33" y2="673.66"/><line class="cls-22" x1="68.51" y1="673.66" x2="1585.2" y2="673.66"/><line class="cls-22" x1="0.75" y1="673.66" x2="40.55" y2="673.66"/><path class="cls-11" d="M1382.86,470.11c16.08,5.57,37.66,26.19,37.66,87.41s-38.26,116.14-38.26,116.14-67.58,15.79-129.09,15.79c-43.73,0-99.65-15.79-99.65-15.79s-31.36-35.75-31.36-67.51c18.62-38.61,59.59-51.86,102.48-51.86S1292.92,438.92,1382.86,470.11Z"/><path class="cls-32" d="M1372,592.74s-11.72,25.71-36.11,25.71H1170.61c-9.36,0-12.16-6.87-12.16-6.87,0-14.7,22.39-37.46,83.57-50.47s106-68.06,125.89-68.06C1387.31,493.05,1401.94,526.28,1372,592.74Z"/><path class="cls-8" d="M1214.18,343.21h-81.92a10,10,0,0,0-10,10v146a10,10,0,0,0,10,10h81.92a10,10,0,0,0,10-10v-146A10,10,0,0,0,1214.18,343.21Z"/><rect class="cls-13" x="1122.26" y="348.21" width="91.92" height="155.98" rx="5"/><path class="cls-9" d="M1209.18,353.21v146h-81.92v-146h81.92m0-10h-81.92a10,10,0,0,0-10,10v146a10,10,0,0,0,10,10h81.92a10,10,0,0,0,10-10v-146A10,10,0,0,0,1209.18,343.21Z"/><line class="cls-41" x1="1138.01" y1="368.13" x2="1181.03" y2="368.13"/><line class="cls-41" x1="1138.01" y1="377.46" x2="1161.03" y2="377.46"/><line class="cls-41" x1="1138.01" y1="386.78" x2="1181.03" y2="386.78"/><line class="cls-41" x1="1138.01" y1="396.11" x2="1178.03" y2="396.11"/><line class="cls-41" x1="1138.01" y1="405.43" x2="1191.03" y2="405.43"/><line class="cls-41" x1="1138.01" y1="414.76" x2="1161.03" y2="414.76"/><line class="cls-41" x1="1138.01" y1="424.09" x2="1171.03" y2="424.09"/><line class="cls-41" x1="1138.01" y1="433.41" x2="1181.03" y2="433.41"/><line class="cls-41" x1="1138.01" y1="442.74" x2="1191.03" y2="442.74"/><line class="cls-41" x1="1138.01" y1="452.06" x2="1171.03" y2="452.06"/><line class="cls-41" x1="1138.01" y1="461.39" x2="1171.03" y2="461.39"/><line class="cls-41" x1="1138.01" y1="470.72" x2="1161.03" y2="470.72"/><path class="cls-42" d="M1381.55,416.87c4.28,16.43-.85,20.22,6.76,35.2,3.4,6.71,14.42,6.86,17.87,26.63-4.81,9.61-31.16,17.66-47.47,17.66S1365.62,443.3,1381.55,416.87Z"/><path class="cls-31" d="M1224,594.22l-26.53-2.53a11.61,11.61,0,0,0-6.22.76l-.7.29a11.63,11.63,0,0,0-7.16,10.73h0a11.61,11.61,0,0,0,6.42,10.39l8,4a11.65,11.65,0,0,0,5.21,1.24h19.23a11.63,11.63,0,0,0,11.62-11.63V605.7A11.61,11.61,0,0,0,1224,594.22Z"/><path class="cls-43" d="M1190.56,592.74l.7-.29a11.61,11.61,0,0,1,6.22-.76l7.57.72c-4.33,2.6-8.61,7.24-9.86,12.64a19.51,19.51,0,0,0,1,12l-6.38-3.2a11.62,11.62,0,0,1,.74-21.12Z"/><polygon class="cls-43" points="1287.52 586.88 1243.88 586.88 1243.88 552.31 1287.52 521.34 1287.52 586.88"/><polygon class="cls-19" points="1287.52 586.88 1243.88 586.88 1243.88 552.31 1287.52 521.34 1287.52 586.88"/><path d="M1348.44,400.64a29.8,29.8,0,0,0-39.15,9.36c-1.58,11.81,2.31,23.3-1.49,30.76-4.3,8.46-12.55,9.23-16.38,22.81,11.33,32.79,55.38,13.67,66-11.4S1368,411.43,1348.44,400.64Z"/><path class="cls-43" d="M1343.48,453c24.43,3.63,39.38,17.13,39.38,17.13s3.71,51.17-35.07,112.11H1264.2l22.06-56.4c-6.52-4.48-7.57-17-7.57-17l20.62-43.61S1320.34,453,1343.48,453Z"/><path class="cls-32" d="M1350.31,521.73c1.54,53.89-53.42,5.64-84.61,60.49h88S1371.31,539.61,1350.31,521.73Z"/><path d="M1267.64,584.21S1224,530.57,1156.31,522c0,0-19.81,5.16-19.81,22.56s31.9,67.17,73,67.17S1267.64,584.21,1267.64,584.21Z"/><path class="cls-44" d="M1163.57,543.26c27.83,11.57,43.26,49,43.26,49"/><path class="cls-43" d="M1382.86,470.11c5.29,40-1.59,87-16.75,112.11-36.94,1.48-41.62-4.71-49.64-8-5.31-2.17-5.79-12.9-5.79-16.44s4.09-11.13,8-11.13,28.89,4.86,28.89,4.86c-1.55-16,4.29-35.93,4.29-35.93"/><path class="cls-22" d="M1347.56,551.53c-1.55-16,4.29-35.93,4.29-35.93"/><path class="cls-22" d="M1318.67,546.67c3.9,0,28.89,4.86,28.89,4.86"/><path class="cls-31" d="M1318.12,548.47a248.67,248.67,0,0,1-26.47-6.65,4.62,4.62,0,0,0-2.68.15l-12,4.41a4.53,4.53,0,0,0-1.9,1.33c-2,2.4-7.3,8.93-7.3,12.53,0,0,13.39,6.28,20,6.54,4.39.17,4-5.6,4-5.6,4.06.16,5.37-2.4,5.37-2.4s19.24,8.87,23.57,9.31c3.21-1.89,5.82-4.29,5.18-11.3A9.48,9.48,0,0,0,1318.12,548.47Z"/><polygon class="cls-45" points="1314.68 576.81 1273.45 558.25 1273.45 551.53 1314.68 573.53 1314.68 576.81"/><polygon class="cls-45" points="1228.39 576.81 1187.16 558.25 1187.16 551.53 1228.39 573.53 1228.39 576.81"/><path class="cls-45" d="M1169.55,491.15h81.22a3.67,3.67,0,0,1,3.48,2.51l19.2,57.87h-86.56l-19.18-57.83a1.93,1.93,0,0,1,1.21-2.45A1.89,1.89,0,0,1,1169.55,491.15Z"/><rect class="cls-45" x="1186.9" y="551.53" width="86.55" height="6.72"/><line class="cls-18" x1="1259.55" y1="551.53" x2="1186.89" y2="551.53"/><circle class="cls-9" cx="1215.83" cy="521.34" r="8.06"/><polygon class="cls-46" points="1228.39 576.81 1314.68 576.81 1273.45 558.25 1186.89 558.25 1228.39 576.81"/><path d="M1347.79,582.22H1295L1235.72,530s-16.47-4.24-26.82,7-12.7,81.4,5.41,81.4h98.16S1341.26,614.21,1347.79,582.22Z"/><path class="cls-44" d="M1226.4,571s-1.47,28.67,28.38,47.44"/><line class="cls-44" x1="1295.04" y1="582.22" x2="1307.92" y2="591.8"/><path class="cls-22" d="M1372,592.74s-11.72,25.71-36.11,25.71H1170.61c-9.36,0-12.16-6.87-12.16-6.87"/><path class="cls-31" d="M1343.4,400.38c16.78-.25,24.51,9.65,24.51,17.53s-3.71,20-17.53,26.44c-.59,7.72-6.91,17.95-6.91,17.95-7.89,3.9-16.41,5.07-21,2.69s4.16-7.57,4.16-7.57l.29-11.59c-4-.3-8.34-.38-9.8-2s.58-13.78.58-13.78c-3.59-.22-5.71-.73-6.08-2.71s8.36-8.14,8.36-8.14C1322.38,408.88,1328.21,400.6,1343.4,400.38Z"/><path class="cls-19" d="M1326.91,445.83l6.35.3a8.22,8.22,0,0,1-6.46,4.25Z"/><path class="cls-42" d="M1347.85,391.78c9.89,0,29.44,12.85,33.7,25.09-3.61,18-6.19,49.61-15.46,52.52-8.23,2.59-21.63,1.06-29.49-4.42,1.34-16.17,11.47-17.2,11.92-28.9-10.58,0-24-15.08-26.37-28.3C1322.15,399.07,1329.31,391.78,1347.85,391.78Z"/><line class="cls-22" x1="1167.21" y1="475.72" x2="1167.21" y2="484.7"/><line class="cls-22" x1="1160.81" y1="491.1" x2="1151.83" y2="491.1"/><line class="cls-22" x1="1156.33" y1="480.22" x2="1162.69" y2="486.58"/><path class="cls-27" d="M446.49,233l25,54.49-5,28.12s-29.5-11.29-50.64-62.83C418.48,229.71,432.72,228.56,446.49,233Z"/><path class="cls-27" d="M498.41,212.41l-6,5.39-5.9,14.07L461,283.71s-4.91,19.82,5.49,31.92c19.14-7.34,27.62-74.83,27.62-74.83a7,7,0,0,0,4.34-2.39Z"/><path class="cls-47" d="M347.05,623.22c40.36-44.41,46.84-76.46,92.29-113.34l26.88,24.42L362.61,637.35Z"/><path class="cls-32" d="M347.05,623.22c40.36-44.41,46.84-76.46,92.29-113.34l26.88,24.42L362.61,637.35Z"/><path class="cls-48" d="M333.87,620.7l-9.25,1.49c1.42,5.35,12.6,38.74,14,43.18,2.06,6.67,4.66,8.29,8.87,8.29h17.28s-16.14-6.32-21-18.31S333.87,620.7,333.87,620.7Z"/><path class="cls-10" d="M352,617.22c-3.08-2.82-10.15-2-15.32.27s-4.57,4.31-3.46,8.69,10.54,35.89,11.7,39.65,4,7.83,10.65,7.83h18.68c0-15-12.81-15.45-12.81-15.45l.44-17s8-.9,7.73-3.85c-.4-5.12-9.31-8.64-17-8.79C350.34,624.5,350.51,619.54,352,617.22Z"/><path class="cls-16" d="M352,617.22c-3.08-2.82-10.15-2-15.32.27s-4.57,4.31-3.46,8.69,10.54,35.89,11.7,39.65,4,7.83,10.65,7.83h18.68c0-15-12.81-15.45-12.81-15.45l.44-17s8-.9,7.73-3.85c-.4-5.12-9.31-8.64-17-8.79C350.34,624.5,350.51,619.54,352,617.22Z"/><circle class="cls-18" cx="354.76" cy="658.23" r="1.85"/><circle class="cls-18" cx="355" cy="648.93" r="1.85"/><circle class="cls-18" cx="355.24" cy="639.64" r="1.85"/><path class="cls-31" d="M386.62,645.92c-.25-60-17.12-88-8.53-145.92l36.31-.15-6.77,146Z"/><path class="cls-27" d="M386.62,645.92c-.25-60-17.12-88-8.53-145.92l36.31-.15-6.77,146Z"/><path class="cls-48" d="M379.07,673.66h68.76a3.15,3.15,0,0,0,3.15-3.15c0-.11,0-.22,0-.33l-.32-3a3.14,3.14,0,0,0-3-2.8l-64.82-2.44Z"/><path class="cls-49" d="M385.3,642.74a16.45,16.45,0,0,0-5.73,12.68,36.54,36.54,0,0,0,.35,4.56,5.41,5.41,0,0,0,5.17,4.66L448.84,667a2.36,2.36,0,0,0,2.5-2.19v-.24c0-3.82-1.24-6.72-7.19-9.23-1.88-.8-29.64-11.39-29.64-11.39s4.63-8.5-1.8-10.79c-4.67-1.67-11.18,4-17,12.9C390.57,646,385.3,642.74,385.3,642.74Z"/><circle class="cls-18" cx="431.44" cy="656.66" r="1.85"/><circle class="cls-18" cx="422.62" cy="653.72" r="1.85"/><circle class="cls-18" cx="413.8" cy="650.78" r="1.85"/><path class="cls-30" d="M394.94,329.76c-63.11,32.9-51.18,139.07-38.48,229.85l118.85-2.5s7.88-22.84,7.88-64.78c0-43.82-12.64-73.8-30.94-115.21,4-16.13-1.19-42.56-4.85-53.31Z"/><path class="cls-50" d="M447.4,323.81c3-5.87,4.93-23.53,4.93-23.53,4.39-3.6,14.19-16.59,12.49-25C454.3,257.92,451.5,250.76,446.49,233c-11.65-7.53-37.83-10-47.05-9.33-21.2,6.11-41.81,18.13-49.27,34.11,4.31,38,33.31,63,44.77,72Z"/><path d="M405,158.06c27.56-3.39,35.85,11.93,39.14,51.78l-32,8.5s-11.55-19.22-13.07-31.53S405,158.06,405,158.06Z"/><path class="cls-27" d="M400.11,193.46l-5.26,34.83c5.61,5.85,22.09,10.64,28.09,24.92,6.7-18-1.09-25.51-1.09-25.51L421.18,192Z"/><path class="cls-19" d="M421.27,196.88l.31,16.37c-8.21-1.95-10.82-8.1-11.7-15.86Z"/><path class="cls-27" d="M405.77,162.61c-15,1.7-19.24,9-18.16,18.56,1.22,10.78,9.07,16,18,15,0,0,.77,3,1.47,5.62A7.22,7.22,0,0,0,412.4,207c11.67,2.77,17.17,2.31,18.09.18,1.48-3.46,1.51-12.63.26-23.64C428.84,166.82,415.64,161.49,405.77,162.61Z"/><path class="cls-27" d="M430.23,183.78c3.95,2.42,8.12,5.23,6.37,7.69s-8.79,1.75-8.79,1.75Z"/><path class="cls-27" d="M394.85,228.29c-.94,8.42,20.6,9.43,28.09,24.92,6.7-18-1.09-25.51-1.09-25.51"/><path d="M415.1,171.79l15,1.51c-1-8.39-19.81-15.89-25.08-15.24-35,4.31-34.58,53.17-34.58,53.17l6.58,2.34a34,34,0,0,1,1.53-11.85,53.11,53.11,0,0,0,.88,12.71l16.59,5.9s9.51-3.52,7.8-18.3C401.84,185.14,417.94,182.86,415.1,171.79Z"/><path class="cls-27" d="M364.85,332c-7.57,6.36-18.32,8-18.32,8s-2.73-31.82-1.44-50.46c1.09-15.85,5.85-29.82,11.32-36.86,9,2.42,16.94,13,18.4,25.84C376.94,297.29,374.39,310.19,364.85,332Z"/><path class="cls-22" d="M395,394.69c0,27.23,25,92.58,69,92.58"/><path class="cls-51" d="M494.47,327H435.08l12.29-33.67a4.82,4.82,0,0,1,4.53-3.17H508a2.79,2.79,0,0,1,2.79,2.79,2.75,2.75,0,0,1-.17.95l-10.69,29.3A5.79,5.79,0,0,1,494.47,327Z"/><path class="cls-27" d="M457.52,314l-1.41-1.16a4.68,4.68,0,0,0-3.86-1l-6.46,1.22h-5.64l2-5.51h-7.27a6.46,6.46,0,0,0-5.19,2.61c-2.11,2.85-4.48,6.57-6.75,7s-53.5,3.34-53.5,3.34L346.5,339.78c28.7,12.24,77.81-8.23,78.72-8.49a5.92,5.92,0,0,1,3.23.63,8.71,8.71,0,0,0,3.23.62h5.79a11.24,11.24,0,0,0,4.87-1.11l6.73-3.21a12.12,12.12,0,0,0,2.54-1.64l9-7.57a1,1,0,0,0,.36-.77v-.85a3.42,3.42,0,0,0-3.44-3.4Z"/><line class="cls-18" x1="445.79" y1="313.09" x2="436.58" y2="313.09"/><line class="cls-22" x1="525.96" y1="290.91" x2="517.08" y2="290.91"/><line class="cls-22" x1="510.76" y1="284.59" x2="510.76" y2="275.71"/><line class="cls-22" x1="521.51" y1="280.16" x2="515.23" y2="286.44"/><path class="cls-27" d="M494.52,225.14l5.82-7.35,2.53-2.8a2.79,2.79,0,0,1,3.51-.52h0a2.78,2.78,0,0,1,.93,3.83c0,.06-.07.12-.11.17L504.66,222a9.42,9.42,0,0,0-2.13,5.33c-.5,7-4.82,11.39-8.79,11.39C490.31,238.71,494.52,225.14,494.52,225.14Z"/><path class="cls-8" d="M1276.56,346.74h39.72a21.39,21.39,0,0,1,21.39,21.38h0a21.39,21.39,0,0,1-21.39,21.39h-39.72a21.39,21.39,0,0,1-21.39-21.39h0A21.39,21.39,0,0,1,1276.56,346.74Z"/><path class="cls-12" d="M1271.56,346.74h39.72a21.39,21.39,0,0,1,21.39,21.38h0a21.39,21.39,0,0,1-21.39,21.39h-39.72a21.39,21.39,0,0,1-21.39-21.39h0A21.39,21.39,0,0,1,1271.56,346.74Z"/><polyline class="cls-52" points="1280.49 375.21 1270.35 368.13 1280.49 361.05"/><polyline class="cls-52" points="1302.35 361.05 1312.49 368.13 1302.35 375.21"/><line class="cls-52" x1="1287.4" y1="378.62" x2="1295.43" y2="357.64"/><rect class="cls-8" x="529.27" y="368.82" width="67" height="67" rx="10"/><rect class="cls-9" x="524.27" y="368.82" width="67" height="67" rx="10"/><circle class="cls-50" cx="557.77" cy="402.32" r="17.87"/><path class="cls-9" d="M565.18,400.08a4.07,4.07,0,0,0-7.41-2.33,4.08,4.08,0,0,0-7.42,2.33,4,4,0,0,0,.9,2.54h0l5.46,6.83h0a1.32,1.32,0,0,0,1.87.22,1.15,1.15,0,0,0,.22-.22h0l5.46-6.83h0A4,4,0,0,0,565.18,400.08Z"/></g></g></g></svg>