<svg height="512pt" viewBox="-46 0 512 512" width="512pt" xmlns="http://www.w3.org/2000/svg"><path d="m406.324219 165.410156c-4.140625 0-7.5-3.359375-7.5-7.5v-45.105468c0-4.144532 3.359375-7.5 7.5-7.5s7.5 3.355468 7.5 7.5v45.105468c0 4.140625-3.359375 7.5-7.5 7.5zm0 0" fill="#333941"/><path d="m347.730469 230.925781h62.394531c5.867188 0 10.621094-4.757812 10.621094-10.625v-51.769531c0-5.867188-4.757813-10.621094-10.621094-10.621094h-62.394531zm0 0" fill="#495560"/><path d="m73.015625 230.925781h-62.394531c-5.867188 0-10.621094-4.757812-10.621094-10.625v-51.769531c0-5.867188 4.757812-10.621094 10.621094-10.621094h62.394531zm0 0" fill="#3d4751"/><path d="m38.945312 512c0-94.675781 76.75-171.425781 171.425782-171.425781 94.679687 0 171.429687 76.75 171.429687 171.425781zm0 0" fill="#e3e3e3"/><path d="m231.617188 341.882812c-6.960938-.859374-14.050782-1.308593-21.246094-1.308593-94.675782 0-171.425782 76.75-171.425782 171.425781h42.492188c0-87.480469 65.53125-159.652344 150.179688-170.117188zm0 0" fill="#d1d1d1"/><path d="m89.582031 390.367188h35.179688c9.917969 0 17.957031 8.039062 17.957031 17.960937 0 9.917969 8.042969 17.957031 17.960938 17.957031h99.386718c9.917969 0 17.960938-8.039062 17.960938-17.957031 0-9.921875 8.039062-17.960937 17.960937-17.960937h35.175781c-30.988281-30.773438-73.667968-49.792969-120.789062-49.792969-47.125 0-89.804688 19.019531-120.792969 49.792969zm0 0" fill="#495560"/><path d="m130.957031 391.488281c26.390625-26.691406 61.476563-44.761719 100.664063-49.605469-6.960938-.859374-14.050782-1.308593-21.25-1.308593-47.121094 0-89.800782 19.019531-120.789063 49.792969h35.179688c2.179687 0 4.261719.410156 6.195312 1.121093zm0 0" fill="#3d4751"/><path d="m394.539062 184.167969c0 101.714843-82.453124 184.167969-184.167968 184.167969-101.710938 0-184.167969-82.453126-184.167969-184.167969 0-101.714844 82.457031-184.167969 184.167969-184.167969 101.714844 0 184.167968 82.453125 184.167968 184.167969zm0 0" fill="#f4f4f4"/><path d="m68.695312 184.167969c0-94.527344 71.21875-172.40625 162.921876-182.941407-6.972657-.800781-14.058594-1.226562-21.246094-1.226562-101.710938 0-184.167969 82.453125-184.167969 184.167969 0 101.714843 82.457031 184.167969 184.167969 184.167969 7.1875 0 14.273437-.425782 21.246094-1.226563-91.703126-10.535156-162.921876-88.414063-162.921876-182.941406zm0 0" fill="#e3e3e3"/><path d="m209.199219 41.210938c-77.128907.625-140.316407 63.117187-141.761719 140.234374-1.082031 57.824219 32.363281 108.101563 81.0625 131.578126 5.964844 2.878906 13.058594-.65625 14.464844-7.128907l6.660156-30.574219c1.03125-4.734374 5.222656-8.109374 10.066406-8.109374h59.125c4.84375 0 9.035156 3.375 10.066406 8.109374l6.867188 31.535157c1.410156 6.480469 8.460938 9.90625 14.476562 7.121093 49.015626-22.691406 83.105469-72.339843 83.105469-129.808593 0-79.21875-64.769531-143.597657-144.132812-142.957031zm0 0" fill="#546370"/><path d="m108.621094 184.167969c0-71.84375 53.269531-131.46875 122.386718-141.476563-7.113281-1.03125-14.398437-1.539062-21.808593-1.480468-77.128907.625-140.316407 63.117187-141.761719 140.234374-1.082031 57.824219 32.363281 108.101563 81.0625 131.578126 5.964844 2.878906 13.058594-.65625 14.464844-7.128907l1.792968-8.230469c-34.101562-26.152343-56.136718-67.296874-56.136718-113.496093zm0 0" fill="#495560"/><path d="m331.140625 202.832031c0 23.46875-19.023437 42.492188-42.492187 42.492188-23.464844 0-42.488282-19.023438-42.488282-42.492188 0-23.464843 19.023438-42.488281 42.488282-42.488281 23.46875 0 42.492187 19.023438 42.492187 42.488281zm0 0" fill="#59c2e8"/><path d="m278.027344 202.832031c0-17.828125 10.984375-33.085937 26.554687-39.386719-4.921875-1.996093-10.296875-3.101562-15.933593-3.101562-23.464844 0-42.492188 19.023438-42.492188 42.492188 0 23.464843 19.023438 42.488281 42.492188 42.488281 5.636718 0 11.011718-1.105469 15.933593-3.101563-15.566406-6.304687-26.554687-21.558594-26.554687-39.390625zm0 0" fill="#34b6e2"/><path d="m252.863281 446.890625c0 23.46875-19.023437 42.492187-42.492187 42.492187-23.464844 0-42.488282-19.023437-42.488282-42.492187 0-23.464844 19.023438-42.488281 42.488282-42.488281 23.46875 0 42.492187 19.023437 42.492187 42.488281zm0 0" fill="#59c2e8"/><path d="m199.75 446.890625c0-17.828125 10.988281-33.085937 26.558594-39.386719-4.921875-1.996094-10.296875-3.101562-15.9375-3.101562-23.464844 0-42.488282 19.023437-42.488282 42.488281 0 23.46875 19.023438 42.492187 42.488282 42.492187 5.640625 0 11.015625-1.109374 15.9375-3.101562-15.570313-6.304688-26.558594-21.558594-26.558594-39.390625zm0 0" fill="#34b6e2"/><path d="m177.773438 202.832031c0 23.46875-19.023438 42.492188-42.492188 42.492188-23.464844 0-42.488281-19.023438-42.488281-42.492188 0-23.464843 19.023437-42.488281 42.488281-42.488281 23.46875 0 42.492188 19.023438 42.492188 42.488281zm0 0" fill="#59c2e8"/><path d="m124.660156 202.832031c0-17.828125 10.988282-33.085937 26.554688-39.386719-4.921875-1.996093-10.296875-3.101562-15.933594-3.101562-23.464844 0-42.488281 19.023438-42.488281 42.492188 0 23.464843 19.023437 42.488281 42.488281 42.488281 5.636719 0 11.011719-1.105469 15.933594-3.101563-15.566406-6.304687-26.554688-21.558594-26.554688-39.390625zm0 0" fill="#34b6e2"/></svg>